<mxfile host="65bd71144e">
    <diagram id="csn4FMC_ZVPlnMCW2z_-" name="Page-1">
        <mxGraphModel dx="1908" dy="759" grid="1" gridSize="10" guides="1" tooltips="1" connect="1" arrows="1" fold="1" page="1" pageScale="1" pageWidth="850" pageHeight="1100" math="0" shadow="0">
            <root>
                <mxCell id="0"/>
                <mxCell id="1" parent="0"/>
                <mxCell id="46" value="" style="group" vertex="1" connectable="0" parent="1">
                    <mxGeometry x="308" y="140" width="235" height="80" as="geometry"/>
                </mxCell>
                <mxCell id="43" value="A" style="shape=ext;double=1;rounded=0;whiteSpace=wrap;html=1;" vertex="1" parent="46">
                    <mxGeometry x="55" width="120" height="80" as="geometry"/>
                </mxCell>
                <mxCell id="44" value="" style="shape=or;whiteSpace=wrap;html=1;" vertex="1" parent="46">
                    <mxGeometry x="175" width="60" height="80" as="geometry"/>
                </mxCell>
                <mxCell id="45" value="" style="shape=or;whiteSpace=wrap;html=1;direction=south;rotation=90;" vertex="1" parent="46">
                    <mxGeometry x="-10" y="10" width="80" height="60" as="geometry"/>
                </mxCell>
                <mxCell id="50" value="" style="group" vertex="1" connectable="0" parent="1">
                    <mxGeometry y="290" width="235" height="80" as="geometry"/>
                </mxCell>
                <mxCell id="51" value="B" style="shape=ext;double=1;rounded=0;whiteSpace=wrap;html=1;" vertex="1" parent="50">
                    <mxGeometry x="55" width="120" height="80" as="geometry"/>
                </mxCell>
                <mxCell id="52" value="" style="shape=or;whiteSpace=wrap;html=1;" vertex="1" parent="50">
                    <mxGeometry x="175" width="60" height="80" as="geometry"/>
                </mxCell>
                <mxCell id="53" value="" style="shape=or;whiteSpace=wrap;html=1;direction=south;rotation=90;" vertex="1" parent="50">
                    <mxGeometry x="-10" y="10" width="80" height="60" as="geometry"/>
                </mxCell>
                <mxCell id="54" style="edgeStyle=none;html=1;exitX=0;exitY=0.5;exitDx=0;exitDy=0;exitPerimeter=0;entryX=0.5;entryY=0;entryDx=0;entryDy=0;" edge="1" parent="1" source="45" target="51">
                    <mxGeometry relative="1" as="geometry"/>
                </mxCell>
                <mxCell id="55" value="" style="group" vertex="1" connectable="0" parent="1">
                    <mxGeometry x="630" y="290" width="235" height="80" as="geometry"/>
                </mxCell>
                <mxCell id="56" value="C" style="shape=ext;double=1;rounded=0;whiteSpace=wrap;html=1;" vertex="1" parent="55">
                    <mxGeometry x="55" width="120" height="80" as="geometry"/>
                </mxCell>
                <mxCell id="57" value="" style="shape=or;whiteSpace=wrap;html=1;" vertex="1" parent="55">
                    <mxGeometry x="175" width="60" height="80" as="geometry"/>
                </mxCell>
                <mxCell id="58" value="" style="shape=or;whiteSpace=wrap;html=1;direction=south;rotation=90;" vertex="1" parent="55">
                    <mxGeometry x="-10" y="10" width="80" height="60" as="geometry"/>
                </mxCell>
                <mxCell id="59" style="edgeStyle=none;html=1;exitX=0;exitY=0.5;exitDx=0;exitDy=0;exitPerimeter=0;entryX=0.5;entryY=0;entryDx=0;entryDy=0;" edge="1" parent="1" source="44" target="56">
                    <mxGeometry relative="1" as="geometry">
                        <mxPoint x="590" y="320" as="targetPoint"/>
                    </mxGeometry>
                </mxCell>
                <mxCell id="60" value="" style="group" vertex="1" connectable="0" parent="1">
                    <mxGeometry x="-180" y="480" width="235" height="80" as="geometry"/>
                </mxCell>
                <mxCell id="61" value="D" style="shape=ext;double=1;rounded=0;whiteSpace=wrap;html=1;" vertex="1" parent="60">
                    <mxGeometry x="55" width="120" height="80" as="geometry"/>
                </mxCell>
                <mxCell id="62" value="" style="shape=or;whiteSpace=wrap;html=1;" vertex="1" parent="60">
                    <mxGeometry x="175" width="60" height="80" as="geometry"/>
                </mxCell>
                <mxCell id="63" value="" style="shape=or;whiteSpace=wrap;html=1;direction=south;rotation=90;" vertex="1" parent="60">
                    <mxGeometry x="-10" y="10" width="80" height="60" as="geometry"/>
                </mxCell>
                <mxCell id="64" value="" style="group" vertex="1" connectable="0" parent="1">
                    <mxGeometry x="160" y="480" width="235" height="80" as="geometry"/>
                </mxCell>
                <mxCell id="65" value="E" style="shape=ext;double=1;rounded=0;whiteSpace=wrap;html=1;" vertex="1" parent="64">
                    <mxGeometry x="55" width="120" height="80" as="geometry"/>
                </mxCell>
                <mxCell id="66" value="" style="shape=or;whiteSpace=wrap;html=1;" vertex="1" parent="64">
                    <mxGeometry x="175" width="60" height="80" as="geometry"/>
                </mxCell>
                <mxCell id="67" value="" style="shape=or;whiteSpace=wrap;html=1;direction=south;rotation=90;" vertex="1" parent="64">
                    <mxGeometry x="-10" y="10" width="80" height="60" as="geometry"/>
                </mxCell>
                <mxCell id="68" value="" style="group" vertex="1" connectable="0" parent="1">
                    <mxGeometry x="470" y="490" width="235" height="80" as="geometry"/>
                </mxCell>
                <mxCell id="69" value="F" style="shape=ext;double=1;rounded=0;whiteSpace=wrap;html=1;" vertex="1" parent="68">
                    <mxGeometry x="55" width="120" height="80" as="geometry"/>
                </mxCell>
                <mxCell id="70" value="" style="shape=or;whiteSpace=wrap;html=1;" vertex="1" parent="68">
                    <mxGeometry x="175" width="60" height="80" as="geometry"/>
                </mxCell>
                <mxCell id="71" value="" style="shape=or;whiteSpace=wrap;html=1;direction=south;rotation=90;" vertex="1" parent="68">
                    <mxGeometry x="-10" y="10" width="80" height="60" as="geometry"/>
                </mxCell>
                <mxCell id="72" value="" style="group" vertex="1" connectable="0" parent="1">
                    <mxGeometry x="830" y="490" width="235" height="80" as="geometry"/>
                </mxCell>
                <mxCell id="73" value="G" style="shape=ext;double=1;rounded=0;whiteSpace=wrap;html=1;" vertex="1" parent="72">
                    <mxGeometry x="55" width="120" height="80" as="geometry"/>
                </mxCell>
                <mxCell id="74" value="" style="shape=or;whiteSpace=wrap;html=1;" vertex="1" parent="72">
                    <mxGeometry x="175" width="60" height="80" as="geometry"/>
                </mxCell>
                <mxCell id="75" value="" style="shape=or;whiteSpace=wrap;html=1;direction=south;rotation=90;" vertex="1" parent="72">
                    <mxGeometry x="-10" y="10" width="80" height="60" as="geometry"/>
                </mxCell>
                <mxCell id="76" value="" style="group" vertex="1" connectable="0" parent="1">
                    <mxGeometry x="-40" y="640" width="235" height="80" as="geometry"/>
                </mxCell>
                <mxCell id="77" value="H" style="shape=ext;double=1;rounded=0;whiteSpace=wrap;html=1;" vertex="1" parent="76">
                    <mxGeometry x="55" width="120" height="80" as="geometry"/>
                </mxCell>
                <mxCell id="78" value="" style="shape=or;whiteSpace=wrap;html=1;" vertex="1" parent="76">
                    <mxGeometry x="175" width="60" height="80" as="geometry"/>
                </mxCell>
                <mxCell id="79" value="" style="shape=or;whiteSpace=wrap;html=1;direction=south;rotation=90;" vertex="1" parent="76">
                    <mxGeometry x="-10" y="10" width="80" height="60" as="geometry"/>
                </mxCell>
                <mxCell id="80" value="" style="group" vertex="1" connectable="0" parent="1">
                    <mxGeometry x="370" y="640" width="235" height="80" as="geometry"/>
                </mxCell>
                <mxCell id="81" value="K" style="shape=ext;double=1;rounded=0;whiteSpace=wrap;html=1;" vertex="1" parent="80">
                    <mxGeometry x="55" width="120" height="80" as="geometry"/>
                </mxCell>
                <mxCell id="82" value="" style="shape=or;whiteSpace=wrap;html=1;" vertex="1" parent="80">
                    <mxGeometry x="175" width="60" height="80" as="geometry"/>
                </mxCell>
                <mxCell id="83" value="" style="shape=or;whiteSpace=wrap;html=1;direction=south;rotation=90;" vertex="1" parent="80">
                    <mxGeometry x="-10" y="10" width="80" height="60" as="geometry"/>
                </mxCell>
                <mxCell id="84" value="" style="group" vertex="1" connectable="0" parent="1">
                    <mxGeometry x="680" y="640" width="235" height="80" as="geometry"/>
                </mxCell>
                <mxCell id="85" value="M" style="shape=ext;double=1;rounded=0;whiteSpace=wrap;html=1;" vertex="1" parent="84">
                    <mxGeometry x="55" width="120" height="80" as="geometry"/>
                </mxCell>
                <mxCell id="86" value="" style="shape=or;whiteSpace=wrap;html=1;" vertex="1" parent="84">
                    <mxGeometry x="175" width="60" height="80" as="geometry"/>
                </mxCell>
                <mxCell id="87" value="" style="shape=or;whiteSpace=wrap;html=1;direction=south;rotation=90;" vertex="1" parent="84">
                    <mxGeometry x="-10" y="10" width="80" height="60" as="geometry"/>
                </mxCell>
                <mxCell id="88" value="" style="group" vertex="1" connectable="0" parent="1">
                    <mxGeometry x="960" y="640" width="235" height="80" as="geometry"/>
                </mxCell>
                <mxCell id="89" value="N" style="shape=ext;double=1;rounded=0;whiteSpace=wrap;html=1;" vertex="1" parent="88">
                    <mxGeometry x="55" width="120" height="80" as="geometry"/>
                </mxCell>
                <mxCell id="90" value="" style="shape=or;whiteSpace=wrap;html=1;" vertex="1" parent="88">
                    <mxGeometry x="175" width="60" height="80" as="geometry"/>
                </mxCell>
                <mxCell id="91" value="" style="shape=or;whiteSpace=wrap;html=1;direction=south;rotation=90;" vertex="1" parent="88">
                    <mxGeometry x="-10" y="10" width="80" height="60" as="geometry"/>
                </mxCell>
                <mxCell id="92" style="edgeStyle=none;html=1;exitX=0;exitY=0.5;exitDx=0;exitDy=0;exitPerimeter=0;entryX=0.5;entryY=0;entryDx=0;entryDy=0;" edge="1" parent="1" source="53" target="61">
                    <mxGeometry relative="1" as="geometry"/>
                </mxCell>
                <mxCell id="93" style="edgeStyle=none;html=1;exitX=1;exitY=0.5;exitDx=0;exitDy=0;entryX=0.5;entryY=0;entryDx=0;entryDy=0;" edge="1" parent="1" source="51" target="65">
                    <mxGeometry relative="1" as="geometry"/>
                </mxCell>
                <mxCell id="94" style="edgeStyle=none;html=1;exitX=0;exitY=0.5;exitDx=0;exitDy=0;exitPerimeter=0;entryX=0.5;entryY=0;entryDx=0;entryDy=0;" edge="1" parent="1" source="58" target="69">
                    <mxGeometry relative="1" as="geometry"/>
                </mxCell>
                <mxCell id="95" style="edgeStyle=none;html=1;exitX=0;exitY=0.5;exitDx=0;exitDy=0;exitPerimeter=0;entryX=0.5;entryY=0;entryDx=0;entryDy=0;" edge="1" parent="1" source="57" target="73">
                    <mxGeometry relative="1" as="geometry"/>
                </mxCell>
                <mxCell id="96" style="edgeStyle=none;html=1;exitX=0;exitY=0.5;exitDx=0;exitDy=0;exitPerimeter=0;entryX=0.5;entryY=0;entryDx=0;entryDy=0;" edge="1" parent="1" source="67" target="77">
                    <mxGeometry relative="1" as="geometry"/>
                </mxCell>
                <mxCell id="97" style="edgeStyle=none;html=1;exitX=0;exitY=0.5;exitDx=0;exitDy=0;exitPerimeter=0;entryX=0.5;entryY=0;entryDx=0;entryDy=0;" edge="1" parent="1" source="66" target="81">
                    <mxGeometry relative="1" as="geometry">
                        <mxPoint x="480" y="640" as="targetPoint"/>
                    </mxGeometry>
                </mxCell>
                <mxCell id="99" style="edgeStyle=none;html=1;exitX=0;exitY=0.5;exitDx=0;exitDy=0;exitPerimeter=0;entryX=0.5;entryY=0;entryDx=0;entryDy=0;" edge="1" parent="1" source="75" target="85">
                    <mxGeometry relative="1" as="geometry"/>
                </mxCell>
                <mxCell id="100" style="edgeStyle=none;html=1;exitX=0;exitY=0.5;exitDx=0;exitDy=0;exitPerimeter=0;entryX=0.5;entryY=0;entryDx=0;entryDy=0;" edge="1" parent="1" source="74" target="89">
                    <mxGeometry relative="1" as="geometry">
                        <mxPoint x="1070" y="640" as="targetPoint"/>
                    </mxGeometry>
                </mxCell>
            </root>
        </mxGraphModel>
    </diagram>
</mxfile>